<svg width="113" height="32" viewBox="0 0 113 32" fill="none" xmlns="http://www.w3.org/2000/svg">
<path fill-rule="evenodd" clip-rule="evenodd" d="M23.989 4C24.1287 5.26384 23.6259 6.5091 22.8904 7.42477C22.1231 8.32587 20.896 9.0151 19.7007 8.9262C19.5442 7.71006 20.15 6.4171 20.8279 5.62813C21.5942 4.7329 22.9249 4.04677 23.989 4ZM27.9036 11.2901C27.7739 11.367 25.5591 12.6809 25.5833 15.3625C25.6109 18.5977 28.4257 19.6676 28.4603 19.6791C28.4435 19.7544 28.0194 21.2226 26.9637 22.7135C26.0823 24.0257 25.1586 25.3088 23.6916 25.3323C22.994 25.3482 22.523 25.1485 22.0322 24.9404C21.5203 24.7233 20.9869 24.4972 20.1525 24.4972C19.2678 24.4972 18.7107 24.7306 18.1734 24.9557C17.7089 25.1504 17.2591 25.3388 16.6252 25.3648C15.2282 25.4159 14.1607 23.9638 13.2472 22.6631C11.4206 20.0074 9.99901 15.1791 11.9053 11.8934C12.8288 10.282 14.5129 9.24464 16.3134 9.21676C17.1061 9.20061 17.8664 9.50475 18.5329 9.77138C19.0426 9.97526 19.4974 10.1572 19.87 10.1572C20.1972 10.1572 20.6392 9.98256 21.1544 9.77899C21.9664 9.4582 22.9601 9.0656 23.9725 9.17153C24.6648 9.19167 26.6349 9.44382 27.9058 11.2888L27.9036 11.2901Z" fill="white"/>
<path fill-rule="evenodd" clip-rule="evenodd" d="M42.0937 20.531L41.1473 17.6204C41.0471 17.323 40.8595 16.623 40.5829 15.5208H40.5493C40.4391 15.9948 40.2615 16.6951 40.0175 17.6204L39.0879 20.531H42.0937ZM45.365 25.1784H43.4546L42.4083 21.9042H38.7709L37.774 25.1784H35.9141L39.5179 14.0327H41.7437L45.365 25.1784Z" fill="white"/>
<path fill-rule="evenodd" clip-rule="evenodd" d="M52.8068 21.1265C52.8068 20.3443 52.6301 19.6994 52.2751 19.1917C51.8874 18.6623 51.3666 18.3978 50.7138 18.3978C50.2714 18.3978 49.8691 18.5452 49.5097 18.8358C49.1501 19.1288 48.9142 19.512 48.8041 19.9859C48.7487 20.2071 48.7207 20.388 48.7207 20.5302V21.8702C48.7207 22.4548 48.9008 22.9479 49.2608 23.3509C49.6208 23.7539 50.0887 23.9546 50.664 23.9546C51.3395 23.9546 51.8653 23.6951 52.2415 23.1778C52.6182 22.6592 52.8068 21.9759 52.8068 21.1265ZM54.633 21.0611C54.633 22.4281 54.2621 23.5083 53.5201 24.3016C52.8555 25.0075 52.0304 25.3604 51.045 25.3604C49.9819 25.3604 49.2181 24.98 48.7529 24.2195H48.7193V28.4531H46.926V19.7871C46.926 18.9281 46.9029 18.0462 46.8594 17.1417H48.4368L48.5367 18.4157H48.5703C49.1686 17.4558 50.0762 16.9766 51.2942 16.9766C52.2463 16.9766 53.0412 17.3511 53.6772 18.1007C54.315 18.851 54.633 19.8376 54.633 21.0611Z" fill="white"/>
<path fill-rule="evenodd" clip-rule="evenodd" d="M62.0897 21.1265C62.0897 20.3443 61.9123 19.6994 61.5573 19.1917C61.1694 18.6623 60.6504 18.3978 59.9967 18.3978C59.5536 18.3978 59.1523 18.5452 58.792 18.8358C58.432 19.1288 58.1974 19.512 58.0873 19.9859C58.0325 20.2071 58.0039 20.388 58.0039 20.5302V21.8702C58.0039 22.4548 58.1841 22.9479 58.5425 23.3509C58.9025 23.753 59.3701 23.9546 59.9472 23.9546C60.6227 23.9546 61.1485 23.6951 61.5247 23.1778C61.9011 22.6592 62.0897 21.9759 62.0897 21.1265ZM63.9172 21.0611C63.9172 22.4281 63.5463 23.5083 62.8034 24.3016C62.1397 25.0075 61.3146 25.3604 60.3296 25.3604C59.2661 25.3604 58.5023 24.98 58.0378 24.2195H58.0042V28.4531H56.2108V19.7871C56.2108 18.9281 56.1881 18.0462 56.1445 17.1417H57.7217L57.8215 18.4157H57.8554C58.4525 17.4558 59.3601 16.9766 60.5791 16.9766C61.5305 16.9766 62.3255 17.3511 62.9633 18.1007C63.5983 18.851 63.9172 19.8376 63.9172 21.0611Z" fill="white"/>
<path fill-rule="evenodd" clip-rule="evenodd" d="M74.2983 22.0528C74.2983 23.0007 73.9678 23.772 73.3042 24.3674C72.5746 25.0182 71.5597 25.3432 70.2548 25.3432C69.0501 25.3432 68.0847 25.1121 67.3535 24.649L67.7689 23.1606C68.5563 23.6345 69.4204 23.8727 70.3615 23.8727C71.037 23.8727 71.5628 23.7203 71.9405 23.417C72.3164 23.1138 72.5043 22.7067 72.5043 22.199C72.5043 21.7468 72.3493 21.3658 72.0391 21.0569C71.7302 20.7478 71.2143 20.4603 70.4947 20.1952C68.5346 19.4672 67.5551 18.401 67.5551 16.999C67.5551 16.0827 67.8986 15.3315 68.5859 14.747C69.2704 14.1616 70.1842 13.8691 71.3263 13.8691C72.345 13.8691 73.1916 14.046 73.867 14.3985L73.4184 15.8541C72.7877 15.5124 72.0743 15.3418 71.2759 15.3418C70.645 15.3418 70.1521 15.4966 69.7987 15.8046C69.5 16.0802 69.3504 16.416 69.3504 16.8141C69.3504 17.2543 69.5212 17.6189 69.8643 17.9051C70.163 18.1699 70.7056 18.4561 71.4931 18.7653C72.4561 19.1516 73.1636 19.6029 73.6188 20.1202C74.0721 20.6363 74.2983 21.2818 74.2983 22.0528Z" fill="white"/>
<path fill-rule="evenodd" clip-rule="evenodd" d="M80.2287 18.481H78.2518V22.3832C78.2518 23.3756 78.5999 23.8716 79.2984 23.8716C79.6189 23.8716 79.8846 23.844 80.0949 23.7886L80.1444 25.1444C79.7912 25.2761 79.3258 25.3423 78.7499 25.3423C78.0417 25.3423 77.4879 25.1271 77.0884 24.6974C76.6905 24.2668 76.4901 23.5448 76.4901 22.5306V18.4798H75.3125V17.1394H76.4901V15.6681L78.2518 15.1387V17.1394H80.2287V18.481Z" fill="white"/>
<path fill-rule="evenodd" clip-rule="evenodd" d="M87.2851 21.1516C87.2851 20.4104 87.1264 19.7747 86.8041 19.2444C86.428 18.6032 85.8906 18.2832 85.194 18.2832C84.4731 18.2832 83.9255 18.6038 83.5497 19.2444C83.2273 19.7757 83.0684 20.4212 83.0684 21.1851C83.0684 21.9264 83.2273 22.562 83.5497 23.0914C83.9373 23.7329 84.479 24.0529 85.1781 24.0529C85.8629 24.0529 86.4006 23.7261 86.7882 23.0747C87.1187 22.5341 87.2851 21.892 87.2851 21.1516ZM89.1467 21.094C89.1467 22.329 88.7917 23.3435 88.0836 24.1365C87.3406 24.9531 86.3546 25.3604 85.1256 25.3604C83.9412 25.3604 82.9984 24.9692 82.295 24.1867C81.5921 23.4046 81.2402 22.417 81.2402 21.2272C81.2402 19.9816 81.6021 18.9616 82.3279 18.1686C83.0523 17.3743 84.0298 16.9775 85.2588 16.9775C86.443 16.9775 87.3963 17.3688 88.1153 18.1515C88.8035 18.9114 89.1467 19.8921 89.1467 21.094Z" fill="white"/>
<path fill-rule="evenodd" clip-rule="evenodd" d="M94.977 18.7122C94.7994 18.6793 94.6102 18.6623 94.4117 18.6623C93.7807 18.6623 93.2929 18.8996 92.9497 19.3745C92.6513 19.7933 92.5013 20.3226 92.5013 20.9614V25.1785H90.7086L90.7254 19.6725C90.7254 18.7463 90.7027 17.9028 90.6582 17.1423H92.2204L92.286 18.68H92.3355C92.5247 18.1515 92.8234 17.7262 93.2325 17.4071C93.632 17.12 94.0635 16.9766 94.5287 16.9766C94.6942 16.9766 94.8438 16.9883 94.977 17.0091V18.7122Z" fill="white"/>
<path fill-rule="evenodd" clip-rule="evenodd" d="M101.288 20.3165C101.3 19.7871 101.183 19.3302 100.94 18.9439C100.63 18.4474 100.153 18.1992 99.511 18.1992C98.9248 18.1992 98.4475 18.4415 98.0835 18.9272C97.7848 19.3132 97.6072 19.7763 97.5527 20.3156H101.288V20.3165ZM102.998 20.7796C102.998 21.0999 102.977 21.3694 102.932 21.5896H97.5519C97.5728 22.3836 97.8329 22.9907 98.3322 23.4098C98.7859 23.784 99.3724 23.9714 100.092 23.9714C100.889 23.9714 101.616 23.845 102.27 23.5913L102.55 24.8307C101.786 25.1625 100.884 25.3276 99.8443 25.3276C98.5924 25.3276 97.6098 24.9605 96.8948 24.2279C96.1814 23.495 95.8242 22.5109 95.8242 21.2765C95.8242 20.0647 96.1562 19.0554 96.8217 18.2504C97.5183 17.3914 98.4598 16.9614 99.644 16.9614C100.807 16.9614 101.688 17.3914 102.286 18.2504C102.76 18.9331 102.998 19.7772 102.998 20.7796Z" fill="white"/>
<path fill-rule="evenodd" clip-rule="evenodd" d="M40.571 7.20012C40.571 6.56107 40.4011 6.07102 40.0613 5.72935C39.7213 5.38861 39.225 5.21762 38.5716 5.21762C38.2938 5.21762 38.0573 5.23621 37.8613 5.27462V9.3691C37.9699 9.38613 38.1684 9.39357 38.4568 9.39357C39.1317 9.39357 39.6525 9.20678 40.019 8.8332C40.3858 8.45963 40.571 7.91537 40.571 7.20012ZM41.5012 7.17566C41.5012 8.16133 41.2041 8.90353 40.6111 9.40194C40.0619 9.86163 39.281 10.0918 38.2701 10.0918C37.7689 10.0918 37.3395 10.0704 36.9805 10.0267V4.64054C37.449 4.56527 37.9537 4.52686 38.4988 4.52686C39.462 4.52686 40.1879 4.73533 40.6776 5.15227C41.2259 5.62404 41.5012 6.29809 41.5012 7.17566Z" fill="white"/>
<path fill-rule="evenodd" clip-rule="evenodd" d="M45.5135 8.06547C45.5135 7.70119 45.4345 7.38864 45.2771 7.12812C45.092 6.81309 44.8287 6.65573 44.4862 6.65573C44.1321 6.65573 43.863 6.81309 43.6779 7.12812C43.5198 7.38864 43.4414 7.70615 43.4414 8.08127C43.4414 8.44556 43.5207 8.75811 43.6779 9.01862C43.8689 9.33334 44.1346 9.4907 44.4778 9.4907C44.8144 9.4907 45.0786 9.33086 45.2687 9.00995C45.4317 8.74448 45.5135 8.42976 45.5135 8.06547ZM46.4288 8.03698C46.4288 8.64412 46.2545 9.1416 45.9064 9.5319C45.5411 9.93305 45.0576 10.1332 44.4534 10.1332C43.8713 10.1332 43.408 9.94141 43.062 9.55606C42.7173 9.17165 42.5449 8.68686 42.5449 8.10234C42.5449 7.49086 42.7223 6.98904 43.0788 6.59966C43.4357 6.21029 43.9151 6.01514 44.519 6.01514C45.1012 6.01514 45.5688 6.20688 45.9232 6.5913C46.2595 6.96488 46.4288 7.44718 46.4288 8.03698Z" fill="white"/>
<path fill-rule="evenodd" clip-rule="evenodd" d="M53.0383 6.0957L51.7975 10.0437H50.9898L50.4758 8.32911C50.3455 7.90133 50.2397 7.47571 50.1572 7.05381H50.1411C50.0648 7.48748 49.9587 7.91217 49.8225 8.32911L49.2764 10.0437H48.4597L47.293 6.0957H48.199L48.647 7.97257C48.7559 8.41647 48.8449 8.83929 48.9165 9.23951H48.9323C48.998 8.90961 49.1066 8.48926 49.2596 7.98063L49.8225 6.09632H50.5406L51.0801 7.94067C51.2104 8.39044 51.3165 8.8235 51.398 9.24044H51.4223C51.482 8.83434 51.572 8.40129 51.6914 7.94067L52.1727 6.09632H53.0383V6.0957Z" fill="white"/>
<path fill-rule="evenodd" clip-rule="evenodd" d="M57.6088 10.0437H56.7273V7.78238C56.7273 7.08541 56.4613 6.73724 55.928 6.73724C55.6667 6.73724 55.4554 6.83264 55.2912 7.02439C55.1291 7.21613 55.0466 7.44226 55.0466 7.70123V10.0427H54.1649V7.22388C54.1649 6.87694 54.154 6.50089 54.1328 6.09385H54.9078L54.9489 6.71122H54.9735C55.0762 6.51947 55.2289 6.36118 55.4302 6.23449C55.6689 6.08735 55.9364 6.0127 56.2292 6.0127C56.5995 6.0127 56.9072 6.13165 57.152 6.37016C57.4563 6.66258 57.6088 7.09873 57.6088 7.6783V10.0437Z" fill="white"/>
<path fill-rule="evenodd" clip-rule="evenodd" d="M59.1582 10.0432H60.039V4.28369H59.1582V10.0432Z" fill="white"/>
<path fill-rule="evenodd" clip-rule="evenodd" d="M64.3153 8.06547C64.3153 7.70119 64.2363 7.38864 64.0792 7.12812C63.8947 6.81309 63.6305 6.65573 63.2892 6.65573C62.9342 6.65573 62.6651 6.81309 62.4806 7.12812C62.3225 7.38864 62.2441 7.70615 62.2441 8.08127C62.2441 8.44556 62.3235 8.75811 62.4806 9.01862C62.6716 9.33334 62.9377 9.4907 63.2805 9.4907C63.6172 9.4907 63.8804 9.33086 64.0705 9.00995C64.2348 8.74448 64.3153 8.42976 64.3153 8.06547ZM65.2299 8.03698C65.2299 8.64412 65.0556 9.1416 64.7075 9.5319C64.3422 9.93305 63.8578 10.1332 63.2545 10.1332C62.6717 10.1332 62.2082 9.94141 61.8634 9.55606C61.5184 9.17165 61.3457 8.68686 61.3457 8.10234C61.3457 7.49086 61.5234 6.98904 61.8799 6.59966C62.2368 6.21029 62.7162 6.01514 63.3192 6.01514C63.9023 6.01514 64.3693 6.20688 64.7243 6.5913C65.0606 6.96488 65.2299 7.44718 65.2299 8.03698Z" fill="white"/>
<path fill-rule="evenodd" clip-rule="evenodd" d="M68.5797 8.68686V8.07786C67.6071 8.06113 67.1211 8.3266 67.1211 8.87365C67.1211 9.07964 67.1768 9.2336 67.2903 9.33675C67.4036 9.43959 67.5486 9.4907 67.721 9.4907C67.9145 9.4907 68.0952 9.42968 68.2601 9.30825C68.4257 9.18589 68.5274 9.03101 68.5654 8.84081L68.5797 8.68686ZM69.4956 10.0436H68.7041L68.6384 9.5889H68.6142C68.3432 9.95133 67.9571 10.1332 67.4555 10.1332C67.0812 10.1332 66.7785 10.0136 66.5504 9.77538C66.3435 9.55947 66.2402 9.2906 66.2402 8.97154C66.2402 8.48923 66.4418 8.12154 66.8482 7.86691C67.2539 7.61229 67.8242 7.48745 68.5585 7.49334V7.41961C68.5585 6.89952 68.2841 6.63993 67.7352 6.63993C67.3438 6.63993 66.9988 6.73782 66.701 6.93235L66.5218 6.35588C66.8905 6.12913 67.3457 6.01514 67.8821 6.01514C68.9184 6.01514 69.4383 6.5597 69.4383 7.64822V9.10226C69.4383 9.4969 69.458 9.81069 69.4956 10.0436Z" fill="white"/>
<path fill-rule="evenodd" clip-rule="evenodd" d="M73.5931 8.37849V7.72024C73.5931 7.60625 73.5844 7.51425 73.5685 7.44393C73.5188 7.23267 73.412 7.05518 73.2496 6.91206C73.0857 6.76864 72.8878 6.69678 72.66 6.69678C72.3312 6.69678 72.0735 6.82657 71.8844 7.08708C71.6968 7.34759 71.6016 7.67997 71.6016 8.08607C71.6016 8.47638 71.6918 8.79296 71.8726 9.03675C72.0636 9.29633 72.3209 9.42612 72.6432 9.42612C72.9326 9.42612 73.1641 9.31801 73.3395 9.10118C73.5094 8.90107 73.5931 8.65976 73.5931 8.37849ZM74.5059 10.0435H73.7237L73.6827 9.40938H73.6584C73.4083 9.89168 72.9826 10.133 72.3846 10.133C71.9067 10.133 71.5088 9.9462 71.1933 9.57263C70.8778 9.19936 70.7207 8.71427 70.7207 8.1189C70.7207 7.47985 70.8915 6.96223 71.2347 6.56697C71.567 6.19835 71.9742 6.01404 72.4584 6.01404C72.991 6.01404 73.3634 6.19247 73.5756 6.55024H73.5928V4.28369H74.4751V8.97973C74.4751 9.36415 74.4851 9.71852 74.5059 10.0435Z" fill="white"/>
<path fill-rule="evenodd" clip-rule="evenodd" d="M81.133 8.06547C81.133 7.70119 81.054 7.38864 80.8965 7.12812C80.7111 6.81309 80.4485 6.65573 80.105 6.65573C79.7519 6.65573 79.4824 6.81309 79.297 7.12812C79.1386 7.38864 79.0605 7.70615 79.0605 8.08127C79.0605 8.44556 79.1396 8.75811 79.297 9.01862C79.4877 9.33334 79.7537 9.4907 80.0966 9.4907C80.4333 9.4907 80.6983 9.33086 80.8884 9.00995C81.0509 8.74448 81.133 8.42976 81.133 8.06547ZM82.046 8.03698C82.046 8.64412 81.8717 9.1416 81.5236 9.5319C81.1583 9.93305 80.6754 10.1332 80.0706 10.1332C79.4894 10.1332 79.0261 9.94141 78.6792 9.55606C78.3345 9.17165 78.1621 8.68686 78.1621 8.10234C78.1621 7.49086 78.3398 6.98904 78.6963 6.59966C79.0529 6.21029 79.5326 6.01514 80.1372 6.01514C80.7184 6.01514 81.1869 6.20688 81.5404 6.5913C81.877 6.96488 82.046 7.44718 82.046 8.03698Z" fill="white"/>
<path fill-rule="evenodd" clip-rule="evenodd" d="M86.7856 10.0437H85.9048V7.78238C85.9048 7.08541 85.6391 6.73724 85.1052 6.73724C84.8432 6.73724 84.6322 6.83264 84.4689 7.02439C84.3055 7.21613 84.2243 7.44226 84.2243 7.70123V10.0427H83.342V7.22388C83.342 6.87694 83.3314 6.50089 83.3105 6.09385H84.0843L84.1257 6.71122H84.15C84.2536 6.51947 84.407 6.36118 84.6067 6.23449C84.8466 6.08735 85.1132 6.0127 85.4066 6.0127C85.7763 6.0127 86.084 6.13165 86.3288 6.37016C86.6344 6.66258 86.7856 7.09873 86.7856 7.6783V10.0437Z" fill="white"/>
<path fill-rule="evenodd" clip-rule="evenodd" d="M92.7177 6.75313H91.747V8.6712C91.747 9.15846 91.9197 9.40225 92.2613 9.40225C92.419 9.40225 92.5503 9.38862 92.6536 9.36105L92.6767 10.027C92.5024 10.0921 92.2737 10.1249 91.9919 10.1249C91.6434 10.1249 91.3727 10.0196 91.1767 9.80835C90.9798 9.5974 90.8824 9.2421 90.8824 8.74399V6.75313H90.3027V6.09581H90.8824V5.3722L91.7461 5.1123V6.09488H92.7168V6.75313H92.7177Z" fill="white"/>
<path fill-rule="evenodd" clip-rule="evenodd" d="M97.385 10.0435H96.5026V7.79891C96.5026 7.09109 96.2369 6.73703 95.7043 6.73703C95.2958 6.73703 95.0164 6.9421 94.8633 7.35254C94.8372 7.43865 94.8219 7.54428 94.8219 7.66819V10.0425H93.9414V4.28369H94.8219V6.66331H94.839C95.1162 6.23026 95.5145 6.01404 96.03 6.01404C96.3953 6.01404 96.6968 6.13299 96.9367 6.37182C97.2354 6.66919 97.385 7.11123 97.385 7.69607V10.0435Z" fill="white"/>
<path fill-rule="evenodd" clip-rule="evenodd" d="M101.357 7.65607C101.364 7.39555 101.306 7.17097 101.186 6.98171C101.033 6.73792 100.8 6.61588 100.485 6.61588C100.197 6.61588 99.9624 6.73483 99.7831 6.97334C99.6369 7.16354 99.5501 7.39029 99.5215 7.65607H101.357ZM102.199 7.88282C102.199 8.04018 102.187 8.17276 102.167 8.28087H99.5223C99.5344 8.67118 99.6604 8.96824 99.9053 9.17454C100.129 9.35854 100.417 9.45085 100.771 9.45085C101.162 9.45085 101.519 9.38859 101.84 9.26407L101.978 9.87368C101.602 10.036 101.159 10.1175 100.647 10.1175C100.033 10.1175 99.5494 9.93719 99.1993 9.57724C98.8481 9.21698 98.6738 8.73375 98.6738 8.12754C98.6738 7.53186 98.8359 7.03623 99.1632 6.64097C99.5049 6.21876 99.9666 6.00781 100.55 6.00781C101.12 6.00781 101.553 6.21876 101.846 6.64097C102.082 6.97583 102.199 7.3903 102.199 7.88282Z" fill="white"/>
<path d="M0.5 0.5H112.5V31.5H0.5V0.5Z" stroke="white"/>
</svg>
