<svg width="16" height="16" viewBox="0 0 16 16" fill="none" xmlns="http://www.w3.org/2000/svg">
<path fill-rule="evenodd" clip-rule="evenodd" d="M15.3773 1.37713C15.5855 1.16885 15.5855 0.831164 15.3773 0.622885C15.169 0.414605 14.8313 0.414605 14.623 0.622885L8.00013 7.24576L1.37725 0.622885C1.16897 0.414605 0.831286 0.414605 0.623007 0.622885C0.414727 0.831164 0.414727 1.16885 0.623007 1.37713L7.24588 8.00001L0.623007 14.6229C0.414727 14.8312 0.414727 15.1689 0.623007 15.3771C0.831286 15.5854 1.16897 15.5854 1.37725 15.3771L8.00013 8.75426L14.623 15.3771C14.8313 15.5854 15.169 15.5854 15.3773 15.3771C15.5855 15.1689 15.5855 14.8312 15.3773 14.6229L8.75438 8.00001L15.3773 1.37713Z" fill="#191919"/>
</svg>
