<svg width="16" height="9" viewBox="0 0 16 9" fill="none" xmlns="http://www.w3.org/2000/svg">
<path fill-rule="evenodd" clip-rule="evenodd" d="M15.3929 0.84169L15.0588 0.507572C14.97 0.419484 14.8498 0.370378 14.7247 0.371102C14.6013 0.371621 14.4829 0.420634 14.3953 0.507572L8 6.90287L1.60471 0.512278C1.42116 0.32982 1.12472 0.32982 0.941176 0.512278L0.607058 0.846396C0.4246 1.02994 0.4246 1.32638 0.607058 1.50993L7.66588 8.56875C7.71064 8.61159 7.76341 8.64517 7.82118 8.66757C7.93508 8.71791 8.06492 8.71791 8.17882 8.66757C8.22116 8.65035 8.25958 8.62474 8.29176 8.59228L8.32941 8.56875L8.66353 8.23463L15.3929 1.50522C15.5754 1.32167 15.5754 1.02524 15.3929 0.84169Z" fill="white"/>
</svg>
