<svg width="14" height="14" viewBox="0 0 14 14" fill="none" xmlns="http://www.w3.org/2000/svg">
<path fill-rule="evenodd" clip-rule="evenodd" d="M13.635 2.415C13.8366 2.95978 13.9465 3.53426 13.96 4.115C14 4.86 14 5.1 14 7C14 8.9 14 9.14 13.96 9.885C13.9465 10.4657 13.8366 11.0402 13.635 11.585C13.2687 12.5251 12.5251 13.2687 11.585 13.635C11.0402 13.8366 10.4657 13.9465 9.885 13.96C9.14 14 8.885 14 7 14C5.115 14 4.86 13.99 4.115 13.96C3.53426 13.9465 2.95978 13.8366 2.415 13.635C1.4749 13.2687 0.73135 12.5251 0.365 11.585C0.163362 11.0402 0.0535364 10.4657 0.04 9.885C0 9.14 0 8.9 0 7C0 5.1 0 4.86 0.04 4.115C0.0535364 3.53426 0.163362 2.95978 0.365 2.415C0.73135 1.4749 1.4749 0.73135 2.415 0.365C2.95978 0.163362 3.53426 0.0535364 4.115 0.04C4.86 0 5.1 0 7 0C8.9 0 9.14 0 9.885 0.04C10.4657 0.0535364 11.0402 0.163362 11.585 0.365C12.5251 0.73135 13.2687 1.4749 13.635 2.415ZM3.405 7C3.405 8.98546 5.01454 10.595 7 10.595C7.95345 10.595 8.86786 10.2162 9.54205 9.54205C10.2162 8.86786 10.595 7.95345 10.595 7C10.595 5.01454 8.98546 3.405 7 3.405C5.01454 3.405 3.405 5.01454 3.405 7ZM10.735 4.095C10.2711 4.095 9.895 3.71892 9.895 3.255C9.895 2.79108 10.2711 2.415 10.735 2.415C11.1989 2.415 11.575 2.79108 11.575 3.255C11.5763 3.47911 11.4886 3.69457 11.331 3.85397C11.1735 4.01338 10.9591 4.10368 10.735 4.105V4.095ZM7 9.335C8.28959 9.335 9.335 8.28959 9.335 7C9.335 5.71041 8.28959 4.665 7 4.665C5.71041 4.665 4.665 5.71041 4.665 7C4.665 8.28959 5.71041 9.335 7 9.335Z" fill="white"/>
</svg>
