<svg width="10" height="12" viewBox="0 0 10 12" fill="none" xmlns="http://www.w3.org/2000/svg">
<path fill-rule="evenodd" clip-rule="evenodd" d="M2.805 11.78C3.19979 11.1753 3.50937 10.5192 3.725 9.83C3.82 9.485 4.19 8.065 4.19 8.065C4.57708 8.6201 5.21862 8.94181 5.895 8.92C8.13 8.92 9.75 6.86 9.75 4.295C9.75 1.835 7.75 0 5.165 0C1.955 0 0.25 2.155 0.25 4.5C0.25 5.595 0.835 6.95 1.75 7.385C1.89 7.45 1.97 7.42 2 7.285C2.03 7.15 2.15 6.675 2.205 6.44C2.22941 6.36544 2.21226 6.28352 2.16 6.225C1.8027 5.73204 1.61022 5.13883 1.61 4.53C1.60593 3.64439 1.96736 2.79632 2.60901 2.1859C3.25066 1.57548 4.11569 1.25678 5 1.305C5.81969 1.2558 6.6225 1.55224 7.21351 2.12235C7.80451 2.69245 8.12966 3.48407 8.11 4.305C8.11 6.305 7.11 7.705 5.775 7.705C5.4325 7.72141 5.1024 7.57495 4.88473 7.31C4.66706 7.04506 4.58744 6.69281 4.67 6.36C4.885 5.475 5.29 4.52 5.29 3.86C5.32338 3.59103 5.23841 3.32082 5.0571 3.11936C4.87579 2.91791 4.61598 2.80504 4.345 2.81C3.6 2.81 3 3.585 3 4.615C2.99599 4.9946 3.07091 5.37088 3.22 5.72C3.22 5.72 2.485 8.83 2.355 9.415C2.24236 10.1216 2.23394 10.8409 2.33 11.55C2.37 11.97 2.545 12.19 2.805 11.78Z" fill="white"/>
</svg>
