<svg width="14" height="12" viewBox="0 0 14 12" fill="none" xmlns="http://www.w3.org/2000/svg">
<path fill-rule="evenodd" clip-rule="evenodd" d="M14 1.66001C13.4749 1.88962 12.919 2.04122 12.35 2.11001C12.9546 1.74641 13.4048 1.17351 13.615 0.500008C13.0509 0.835521 12.4337 1.07226 11.79 1.20001C10.9851 0.335901 9.73297 0.0530693 8.63475 0.487275C7.53653 0.92148 6.81639 1.98407 6.82 3.16501C6.8194 3.38552 6.84457 3.60534 6.895 3.82001C4.59669 3.70193 2.45543 2.61768 1 0.835008C0.234962 2.14743 0.625135 3.82868 1.89 4.67001C1.43368 4.65856 0.987207 4.53491 0.59 4.31001C0.587555 4.32323 0.587555 4.33679 0.59 4.35001C0.591393 5.717 1.55514 6.89399 2.895 7.16501C2.64884 7.23144 2.39497 7.26507 2.14 7.26501C1.95879 7.26621 1.77791 7.24946 1.6 7.21501C1.97578 8.38686 3.05462 9.19046 4.285 9.21501C3.26625 10.0131 2.00914 10.4462 0.715 10.445C0.476 10.4438 0.237271 10.4287 0 10.4C1.31383 11.2444 2.8432 11.6923 4.405 11.69C9.685 11.69 12.575 7.31001 12.575 3.51501V3.14501C13.1349 2.73908 13.6175 2.23614 14 1.66001Z" fill="white"/>
</svg>
