<svg width="16" height="9" viewBox="0 0 16 9" fill="none" xmlns="http://www.w3.org/2000/svg">
<path fill-rule="evenodd" clip-rule="evenodd" d="M15.393 7.49022L8.66827 0.765514L8.33415 0.431396C8.15117 0.252035 7.85832 0.252035 7.67533 0.431396L7.34592 0.765514L0.607095 7.49022C0.518006 7.57858 0.467896 7.69886 0.467896 7.82434C0.467896 7.94981 0.518006 8.07009 0.607095 8.15845L0.941212 8.49257C1.03002 8.58066 1.15025 8.62977 1.27533 8.62904C1.39878 8.62852 1.51709 8.57951 1.60474 8.49257L8.00004 2.09728L14.3953 8.48787C14.483 8.57481 14.6013 8.62382 14.7247 8.62434C14.8498 8.62506 14.9701 8.57595 15.0589 8.48787L15.393 8.15375C15.5754 7.9702 15.5754 7.67377 15.393 7.49022Z" fill="white"/>
</svg>
