<svg width="16" height="12" viewBox="0 0 16 12" fill="none" xmlns="http://www.w3.org/2000/svg">
<path fill-rule="evenodd" clip-rule="evenodd" d="M15.185 2.39C15.0125 1.74294 14.5071 1.23756 13.86 1.065C12.69 0.75 8.00003 0.75 8.00003 0.75C8.00003 0.75 3.31003 0.75 2.14003 1.065C1.49297 1.23756 0.987585 1.74294 0.815028 2.39C0.597772 3.58089 0.492313 4.78948 0.500028 6C0.492313 7.21052 0.597772 8.41911 0.815028 9.61C0.987585 10.2571 1.49297 10.7624 2.14003 10.935C3.31003 11.25 8.00003 11.25 8.00003 11.25C8.00003 11.25 12.69 11.25 13.86 10.935C14.5071 10.7624 15.0125 10.2571 15.185 9.61C15.4023 8.41911 15.5077 7.21052 15.5 6C15.5077 4.78948 15.4023 3.58089 15.185 2.39ZM6.50003 8.25V3.75L10.395 6L6.50003 8.25Z" fill="white"/>
</svg>
